<?xml version="1.0" standalone="no"?>
<!DOCTYPE svg PUBLIC "-//W3C//DTD SVG 20010904//EN"
 "http://www.w3.org/TR/2001/REC-SVG-20010904/DTD/svg10.dtd">
<svg version="1.0" xmlns="http://www.w3.org/2000/svg"
 width="1631.000000pt" height="928.000000pt" viewBox="0 0 1631.000000 928.000000"
 preserveAspectRatio="xMidYMid meet">
<metadata>
Created by potrace 1.15, written by Peter Selinger 2001-2017
</metadata>
<g transform="translate(0.000000,928.000000) scale(0.100000,-0.100000)"
fill="#000000" stroke="none">
<path d="M6449 5723 c-35 -5 -71 -46 -99 -113 -20 -47 -24 -75 -26 -190 -4
-184 33 -357 116 -550 56 -129 161 -295 225 -355 119 -110 206 -140 279 -95
141 87 127 494 -28 848 -100 226 -246 404 -366 447 -42 15 -51 16 -101 8z
m158 -99 c51 -20 164 -141 221 -235 131 -218 213 -534 182 -707 -22 -126 -67
-181 -160 -193 -63 -8 -120 22 -199 107 -167 178 -280 456 -295 729 -8 133 19
227 80 279 55 46 97 51 171 20z"/>
<path d="M6510 5613 c-35 -7 -59 -30 -86 -87 -35 -73 -44 -138 -34 -251 34
-379 272 -757 475 -755 39 1 68 24 96 79 19 36 24 65 27 159 l5 115 -31 -32
c-25 -27 -35 -31 -62 -26 -83 15 -170 129 -219 289 -23 75 -28 193 -11 243 13
36 49 57 95 56 l35 -1 -22 31 c-12 18 -48 58 -80 90 -69 70 -132 100 -188 90z"/>
<path d="M6712 5368 c-6 -8 -17 -38 -23 -66 -38 -162 106 -462 222 -462 37 0
63 47 61 110 -2 95 -111 374 -159 405 -36 24 -86 30 -101 13z"/>
<path d="M6934 5622 c-20 -17 -20 -17 17 -35 104 -50 217 -220 275 -413 36
-123 40 -286 7 -356 -12 -27 -19 -48 -16 -48 23 0 107 60 125 89 21 33 23 48
22 166 0 108 -4 143 -24 205 -44 140 -104 246 -185 325 -60 59 -109 78 -173
66 -35 -7 -40 -6 -31 5 15 19 8 17 -17 -4z"/>
<path d="M6989 5393 c16 -32 39 -82 51 -111 22 -51 24 -53 54 -46 17 3 35 9
39 13 4 5 -11 44 -34 89 -38 75 -44 82 -87 96 -25 9 -47 16 -48 16 -2 0 10
-26 25 -57z"/>
<path d="M8455 4288 c-48 -24 -101 -92 -120 -153 -7 -25 -11 -45 -9 -45 3 0 0
-9 -5 -19 -17 -31 -19 -198 -5 -304 45 -326 223 -671 449 -868 33 -28 62 -55
65 -58 3 -3 37 -22 75 -42 191 -100 337 -56 404 121 154 404 -200 1199 -608
1364 -83 33 -186 35 -246 4z m302 -114 c191 -91 404 -386 487 -671 95 -331 39
-583 -142 -637 -32 -9 -64 -15 -72 -12 -8 3 -33 7 -55 10 -51 5 -123 45 -202
112 -202 170 -359 467 -403 764 -23 153 -3 281 57 368 74 109 190 132 330 66z"/>
<path d="M8529 4160 c-20 -10 -43 -30 -52 -43 -9 -13 -22 -30 -29 -38 -20 -21
-48 -119 -55 -192 -23 -245 130 -621 337 -827 94 -95 194 -152 287 -165 182
-25 281 161 238 445 -7 52 -18 109 -24 125 -8 27 -9 24 -10 -28 -1 -83 -32
-137 -98 -174 -32 -18 -51 -16 -108 11 -100 46 -197 175 -250 331 -23 68 -27
92 -23 166 5 107 28 149 92 167 59 18 111 0 190 -62 l40 -31 -18 31 c-32 54
-136 166 -200 215 -111 86 -234 113 -317 69z"/>
<path d="M8828 3914 c-40 -21 -58 -71 -58 -159 0 -175 102 -370 234 -445 62
-36 107 -38 137 -7 74 77 65 244 -22 407 -62 115 -127 177 -214 203 -43 12
-55 13 -77 1z"/>
<path d="M9076 4214 c-31 -17 -27 -25 24 -44 19 -7 58 -30 87 -52 185 -136
316 -387 330 -628 5 -91 2 -113 -16 -169 -12 -35 -20 -66 -17 -69 10 -9 64 20
93 51 95 100 91 333 -7 552 -115 256 -357 432 -494 359z"/>
</g>
</svg>
