<?xml version="1.0" standalone="no"?>
<!DOCTYPE svg PUBLIC "-//W3C//DTD SVG 20010904//EN"
 "http://www.w3.org/TR/2001/REC-SVG-20010904/DTD/svg10.dtd">
<svg version="1.0" xmlns="http://www.w3.org/2000/svg"
 width="1631.000000pt" height="928.000000pt" viewBox="0 0 1631.000000 928.000000"
 preserveAspectRatio="xMidYMid meet">
<metadata>
Created by potrace 1.15, written by Peter Selinger 2001-2017
</metadata>
<g transform="translate(0.000000,928.000000) scale(0.100000,-0.100000)"
fill="#000000" stroke="none">
<path d="M6602 7261 c-699 -164 -1274 -300 -1276 -302 -3 -3 455 -190 1017
-418 l1022 -413 1320 401 c726 221 1328 405 1339 409 20 8 -2083 623 -2126
621 -13 0 -596 -135 -1296 -298z"/>
<path d="M5185 6930 l-70 -18 35 -15 c235 -102 1995 -827 2008 -827 9 0 50 10
91 23 l73 22 -1019 412 c-561 227 -1027 414 -1034 417 -8 2 -45 -4 -84 -14z"/>
<path d="M8735 6501 l-1340 -409 -3 -43 c-3 -43 115 -4871 120 -4917 3 -21
111 40 1153 639 633 364 1151 663 1153 664 1 1 61 976 132 2166 71 1190 131
2197 135 2237 3 39 2 72 -2 71 -4 0 -611 -184 -1348 -408z"/>
<path d="M5080 6852 c0 -15 95 -1024 211 -2242 178 -1874 213 -2218 227 -2231
35 -34 1764 -1360 1768 -1356 6 6 -153 4997 -159 5003 -4 5 -1351 566 -1904
794 l-143 59 0 -27z m971 -1314 c154 -53 293 -297 291 -512 -1 -80 -8 -120
-30 -161 -9 -16 -16 -33 -17 -37 -1 -19 -51 -41 -90 -40 -53 0 -94 21 -146 73
-110 110 -179 284 -179 454 0 80 3 98 28 146 15 30 37 58 50 64 12 5 22 13 22
17 0 12 32 10 71 -4z m120 -1837 c220 -117 459 -428 599 -781 180 -454 176
-875 -9 -1033 -52 -44 -79 -55 -166 -62 -48 -4 -165 44 -253 104 -206 142
-401 412 -530 737 -96 243 -136 435 -133 646 2 147 36 269 97 345 46 56 52 61
116 89 46 19 54 20 126 8 53 -9 100 -25 153 -53z"/>
<path d="M5991 5498 c-14 -7 -34 -29 -45 -48 -31 -52 -30 -218 2 -315 81 -243
251 -379 332 -266 l20 30 -45 46 c-114 118 -189 333 -165 477 5 34 6 66 2 69
-15 15 -78 19 -101 7z"/>
<path d="M6117 5407 c-6 -64 13 -180 42 -258 34 -91 129 -224 146 -207 3 3 6
43 6 89 0 96 -22 184 -71 283 -31 63 -93 146 -109 146 -5 0 -11 -24 -14 -53z"/>
<path d="M5903 3706 c-219 -92 -242 -544 -51 -1026 157 -396 431 -725 658
-792 84 -25 178 -17 217 17 l27 22 -56 17 c-31 9 -61 16 -66 16 -5 0 -50 26
-98 58 -439 290 -774 1129 -630 1578 14 44 35 89 46 99 20 18 27 36 13 34 -5
0 -31 -11 -60 -23z"/>
<path d="M5978 3688 c-92 -123 -103 -417 -26 -708 31 -118 106 -320 118 -320
8 0 642 289 649 296 18 18 -137 295 -241 430 -135 176 -313 312 -429 329 -44
7 -48 5 -71 -27z"/>
<path d="M6485 2832 c-127 -59 -272 -126 -323 -149 l-91 -42 62 -113 c158
-285 376 -503 553 -551 103 -29 105 -28 141 61 63 153 61 380 -5 637 -33 126
-81 257 -98 261 -5 1 -113 -46 -239 -104z"/>
<path d="M7263 6053 c-69 -22 -83 -30 -83 -47 -2 -63 152 -4936 156 -4964 l5
-33 62 35 c34 19 66 41 70 48 5 7 -19 1111 -52 2453 -34 1342 -61 2461 -61
2488 0 26 -3 47 -7 46 -5 0 -45 -12 -90 -26z"/>
</g>
</svg>
