<?xml version="1.0" standalone="no"?>
<!DOCTYPE svg PUBLIC "-//W3C//DTD SVG 20010904//EN"
 "http://www.w3.org/TR/2001/REC-SVG-20010904/DTD/svg10.dtd">
<svg version="1.0" xmlns="http://www.w3.org/2000/svg"
 width="1631.000000pt" height="928.000000pt" viewBox="0 0 1631.000000 928.000000"
 preserveAspectRatio="xMidYMid meet">
<metadata>
Created by potrace 1.15, written by Peter Selinger 2001-2017
</metadata>
<g transform="translate(0.000000,928.000000) scale(0.100000,-0.100000)"
fill="#000000" stroke="none">
<path d="M5172 6202 l198 -90 197 -156 c190 -148 206 -164 382 -367 173 -198
195 -228 339 -462 143 -232 162 -268 257 -496 125 -301 122 -294 187 -571 l52
-225 4 -250 3 -251 -46 -173 c-26 -95 -45 -175 -42 -177 12 -12 31 40 78 212
l51 189 -5 240 -4 240 -57 250 c-55 242 -60 259 -168 520 -106 256 -119 282
-264 517 -141 229 -165 261 -330 452 -170 194 -189 213 -372 356 -193 151
-195 152 -380 235 -103 46 -207 87 -232 90 -35 5 0 -14 152 -83z"/>
<path d="M4486 6176 c-124 -47 -143 -58 -174 -96 -36 -42 -36 -43 -19 -72 33
-57 7 -83 -31 -31 l-19 27 -42 -44 c-34 -36 -51 -70 -96 -190 -53 -145 -54
-150 -69 -331 -12 -146 -13 -204 -4 -281 6 -54 15 -98 19 -98 5 0 19 -10 30
-21 l22 -22 -6 34 c-16 89 -17 177 -3 329 14 158 17 171 68 306 l53 142 100
109 100 109 120 41 120 41 165 -18 165 -18 172 -80 c164 -77 181 -87 350 -222
162 -129 193 -158 346 -335 146 -170 183 -220 298 -407 160 -260 143 -226 256
-498 87 -209 98 -242 149 -464 l55 -239 5 -216 6 -216 -45 -172 -44 -173 -88
-124 -89 -124 -106 -56 -107 -56 -144 -6 -144 -7 -157 51 c-144 46 -169 57
-314 148 -128 80 -184 124 -309 239 -171 157 -377 401 -475 561 -55 90 -58 93
-63 64 -9 -42 63 -154 239 -373 107 -133 182 -213 299 -321 168 -156 285 -240
285 -206 0 10 5 22 10 25 18 11 40 -15 40 -46 0 -47 109 -110 305 -176 l160
-54 145 3 c135 4 149 6 198 31 49 26 52 29 40 50 -17 31 -18 45 -3 57 10 8 18
4 34 -16 12 -15 21 -31 21 -35 0 -5 27 4 59 20 53 27 68 43 148 153 l90 123
47 185 c45 171 48 192 43 274 -4 73 -8 92 -23 102 -37 26 -44 35 -40 57 4 22
8 24 39 12 15 -7 17 1 17 85 0 75 -10 137 -56 343 -55 245 -60 259 -167 517
-71 172 -130 299 -169 363 -55 88 -62 97 -86 92 -14 -2 -32 1 -39 7 -17 14
-17 53 1 67 27 22 -97 203 -295 431 -168 193 -189 214 -366 353 -131 103 -211
158 -263 182 l-75 34 -5 -27 c-5 -25 -10 -28 -40 -23 -5 0 -13 19 -16 40 -6
38 -10 41 -83 74 -67 30 -92 36 -211 46 -74 6 -148 13 -165 15 -20 3 -78 -14
-169 -48z"/>
<path d="M4545 6046 c-108 -40 -112 -43 -191 -126 -80 -84 -81 -87 -134 -227
-29 -79 -55 -141 -57 -139 -2 2 19 63 47 136 27 72 50 135 50 138 -1 15 -22
-31 -66 -149 -45 -117 -49 -134 -64 -299 -17 -174 -17 -176 6 -375 21 -173 32
-228 83 -405 156 -545 471 -1066 867 -1434 126 -117 178 -158 306 -237 85 -53
165 -100 179 -103 14 -5 7 3 -18 19 -24 14 -43 29 -43 32 0 3 12 -3 27 -12 14
-10 92 -39 172 -66 l145 -49 136 0 135 0 110 57 110 56 81 113 81 113 43 172
43 172 -6 212 c-7 210 -7 213 -61 446 -51 218 -61 250 -154 470 -87 207 -116
265 -235 460 -121 197 -157 246 -300 413 -148 173 -177 201 -340 331 -172 137
-185 145 -347 218 -167 76 -168 77 -301 92 -74 8 -147 14 -164 14 -16 -1 -79
-20 -140 -43z m416 -230 c96 -12 118 -19 245 -79 121 -57 158 -81 287 -184
308 -246 565 -601 741 -1023 73 -176 91 -233 130 -400 43 -188 45 -201 47
-370 2 -166 0 -182 -30 -306 -30 -124 -35 -135 -101 -231 -68 -98 -72 -101
-167 -155 l-98 -55 -120 -7 c-120 -7 -120 -7 -245 32 -102 31 -148 53 -250
115 -384 234 -753 717 -950 1242 -55 144 -108 374 -125 530 -15 145 -15 173
-2 300 14 125 20 153 61 256 44 110 50 119 129 197 79 79 86 83 182 116 114
39 122 40 266 22z"/>
<path d="M4710 5769 c-90 -29 -99 -35 -172 -106 -72 -72 -78 -82 -122 -192
-41 -105 -47 -130 -60 -261 -14 -148 -15 -142 17 -440 2 -19 26 -111 52 -205
196 -703 730 -1345 1246 -1500 122 -37 128 -37 231 -30 102 7 108 8 199 58 91
51 96 55 160 149 63 93 66 101 98 239 33 141 34 143 27 313 -7 152 -12 192
-52 362 -122 526 -447 1057 -842 1372 -119 96 -162 123 -277 178 -126 59 -147
66 -248 79 -144 19 -146 19 -257 -16z m785 -524 c157 -22 379 -206 517 -431
106 -172 163 -339 178 -523 10 -126 -9 -220 -61 -306 -240 -396 -925 168 -989
815 -23 231 57 396 213 441 34 9 69 16 77 14 8 -2 37 -6 65 -10z"/>
<path d="M5345 5217 c-67 -20 -109 -60 -146 -140 -32 -70 -33 -76 -34 -202 0
-105 5 -148 24 -225 127 -503 593 -905 850 -734 23 15 41 31 41 36 0 4 12 26
26 48 85 129 73 386 -29 632 -102 244 -280 449 -475 547 -92 46 -185 60 -257
38z"/>
<path d="M5903 5856 c-32 -10 -60 -20 -62 -22 -2 -2 23 -32 55 -69 40 -45 74
-73 111 -90 30 -13 101 -61 159 -106 287 -222 533 -617 613 -983 35 -157 48
-338 31 -424 -10 -50 -9 -72 5 -141 10 -44 20 -81 23 -81 3 0 24 11 48 25 28
16 61 52 97 103 315 454 -96 1459 -713 1741 -81 38 -110 45 -202 55 -97 10
-113 9 -165 -8z"/>
<path d="M6232 5368 c8 -13 65 -106 128 -208 131 -215 133 -218 154 -201 13
11 5 28 -54 124 -38 62 -106 156 -152 209 -83 98 -103 117 -76 76z"/>
<path d="M4054 4971 c3 -14 8 -51 11 -81 4 -30 35 -154 70 -275 50 -176 81
-262 156 -430 116 -262 178 -369 215 -372 24 -2 25 -1 11 20 -64 98 -107 182
-186 360 -71 161 -104 252 -150 414 -32 114 -62 240 -65 278 -10 94 -13 102
-42 108 -22 4 -25 2 -20 -22z"/>
</g>
</svg>
