<?xml version="1.0" standalone="no"?>
<!DOCTYPE svg PUBLIC "-//W3C//DTD SVG 20010904//EN"
 "http://www.w3.org/TR/2001/REC-SVG-20010904/DTD/svg10.dtd">
<svg version="1.0" xmlns="http://www.w3.org/2000/svg"
 width="1631.000000pt" height="928.000000pt" viewBox="0 0 1631.000000 928.000000"
 preserveAspectRatio="xMidYMid meet">
<metadata>
Created by potrace 1.15, written by Peter Selinger 2001-2017
</metadata>
<g transform="translate(0.000000,928.000000) scale(0.100000,-0.100000)"
fill="#000000" stroke="none">
<path d="M7699 7136 c-2 -2 -24 -6 -49 -8 -25 -2 -50 -6 -55 -9 -6 -3 -32 -12
-58 -19 l-48 -13 49 -28 c66 -38 125 -107 172 -204 55 -113 74 -191 74 -310 1
-88 -3 -107 -25 -152 -14 -29 -22 -53 -18 -53 5 0 45 14 91 30 140 51 174 105
172 275 -2 228 -127 446 -280 489 -11 4 -22 4 -25 2z"/>
<path d="M7445 7022 c90 -51 138 -88 170 -132 109 -149 135 -338 67 -484 -18
-38 -30 -71 -28 -74 12 -11 65 59 76 99 20 74 8 240 -25 329 -35 96 -85 178
-136 224 -46 42 -77 56 -122 56 l-32 -1 30 -17z"/>
<path d="M7194 6929 c-38 -19 -74 -119 -74 -204 0 -117 59 -278 131 -360 35
-39 106 -75 151 -75 72 0 110 105 89 248 -35 246 -188 446 -297 391z"/>
<path d="M6903 5102 c-36 -30 -71 -102 -79 -159 -2 -21 -7 -49 -10 -63 -3 -14
-5 -74 -4 -133 5 -433 281 -1040 556 -1224 151 -101 265 -60 307 110 21 82 22
276 3 403 -66 434 -348 950 -583 1068 -73 36 -146 36 -190 -2z m241 -112 c133
-75 287 -293 387 -542 103 -259 146 -549 105 -704 -32 -120 -112 -180 -205
-155 -125 33 -269 190 -384 416 -132 261 -194 509 -185 734 6 143 28 202 91
249 58 42 120 43 191 2z"/>
<path d="M6984 4972 c-11 -9 -36 -44 -55 -77 l-34 -60 0 -145 c0 -163 14 -244
71 -418 43 -133 129 -314 191 -401 47 -67 140 -173 158 -180 5 -2 28 -16 50
-32 50 -33 123 -46 165 -29 63 26 100 130 100 280 0 52 -3 105 -6 117 -5 20
-7 20 -24 5 -44 -40 -45 -40 -86 -26 -52 17 -139 111 -186 199 -58 110 -89
216 -95 322 -9 144 22 203 107 203 l30 0 -50 68 c-55 75 -125 139 -187 171
-51 26 -120 27 -149 3z"/>
<path d="M7302 4702 c-54 -18 -61 -207 -13 -351 51 -153 138 -277 218 -313 48
-21 63 -18 86 21 23 40 22 65 -13 190 -47 169 -154 414 -191 437 -18 11 -73
21 -87 16z"/>
<path d="M7617 5014 c-1 -2 -14 -5 -27 -7 -14 -3 -38 -8 -53 -12 l-28 -8 41
-18 c57 -26 124 -83 175 -149 197 -256 294 -690 190 -851 l-23 -35 81 40 c73
37 84 46 107 91 23 46 25 59 24 180 0 110 -5 146 -28 230 -63 231 -208 454
-335 519 -28 15 -115 29 -124 20z"/>
<path d="M7580 4746 c0 -4 15 -37 33 -74 19 -37 49 -106 68 -154 l33 -86 58
29 58 29 -21 53 c-11 28 -35 79 -53 112 -28 51 -38 61 -72 71 -64 18 -104 26
-104 20z"/>
<path d="M7100 3179 c-57 -21 -92 -125 -91 -269 5 -347 220 -851 467 -1097
165 -163 286 -174 329 -29 18 59 20 216 4 319 -67 439 -398 1009 -625 1075
-47 14 -50 14 -84 1z m169 -111 c92 -45 225 -207 330 -403 145 -271 225 -623
174 -770 -31 -91 -112 -130 -195 -93 -52 23 -191 163 -243 243 -223 344 -339
782 -257 968 17 37 52 80 52 63 0 -4 8 -2 18 3 28 17 72 13 121 -11z"/>
<path d="M7169 3058 c-14 -5 -32 -20 -39 -33 -7 -14 -17 -25 -21 -25 -14 0
-32 -133 -26 -199 19 -220 122 -502 262 -717 149 -229 337 -329 394 -210 23
48 32 172 20 254 -8 51 -15 70 -22 63 -6 -6 -27 -11 -46 -11 -30 0 -44 9 -101
68 -106 109 -184 285 -195 438 -5 64 -3 86 12 114 10 19 24 36 31 36 29 3 32
4 32 12 0 13 -106 127 -151 162 -49 40 -114 60 -150 48z"/>
<path d="M7439 2804 c-21 -25 -23 -148 -4 -229 35 -154 157 -337 241 -365 31
-11 37 -10 49 7 9 11 12 29 9 48 -17 82 -81 254 -139 371 -85 172 -121 210
-156 168z"/>
<path d="M7684 3116 c-3 -8 -17 -17 -31 -21 -26 -6 -25 -7 23 -35 52 -29 139
-113 178 -171 86 -127 171 -323 191 -439 20 -111 22 -140 14 -199 -5 -36 -8
-69 -9 -73 0 -3 -12 -21 -27 -40 -25 -31 -26 -32 -3 -12 14 11 45 31 70 43 25
13 55 32 67 43 82 76 36 393 -89 615 -81 144 -166 241 -245 278 -38 18 -60 20
-108 10 -23 -5 -26 -4 -15 4 11 8 11 11 2 11 -7 0 -15 -6 -18 -14z"/>
<path d="M7700 2792 c0 -1 19 -42 43 -90 24 -48 54 -114 67 -147 13 -33 25
-62 26 -64 2 -2 28 16 57 40 l54 44 -18 47 c-10 27 -32 75 -49 107 l-29 59
-76 4 c-41 2 -75 2 -75 0z"/>
</g>
</svg>
