<?xml version="1.0" standalone="no"?>
<!DOCTYPE svg PUBLIC "-//W3C//DTD SVG 20010904//EN"
 "http://www.w3.org/TR/2001/REC-SVG-20010904/DTD/svg10.dtd">
<svg version="1.0" xmlns="http://www.w3.org/2000/svg"
 width="1631.000000pt" height="928.000000pt" viewBox="0 0 1631.000000 928.000000"
 preserveAspectRatio="xMidYMid meet">
<metadata>
Created by potrace 1.15, written by Peter Selinger 2001-2017
</metadata>
<g transform="translate(0.000000,928.000000) scale(0.100000,-0.100000)"
fill="#000000" stroke="none">
<path d="M7243 8332 c-782 -158 -1421 -288 -1419 -289 1 -1 319 -99 706 -218
l705 -215 1390 336 c764 184 1420 343 1457 352 l67 17 -722 153 c-397 84 -731
152 -742 152 -11 -1 -660 -131 -1442 -288z"/>
<path d="M8720 7925 l-1455 -352 -3 -44 c-3 -49 187 -6711 191 -6716 2 -1 63
34 136 80 73 45 145 89 160 99 131 77 847 523 852 530 3 5 10 10 15 10 5 -1
280 166 611 370 l602 371 6 61 c3 34 86 1362 185 2951 99 1590 182 2914 185
2943 4 45 3 52 -12 51 -10 -1 -673 -160 -1473 -354z"/>
<path d="M5770 7968 c0 -24 103 -1441 229 -3151 l229 -3107 25 -20 c84 -66
1152 -878 1152 -877 6 12 -195 6751 -201 6757 -7 5 -1153 359 -1416 436 -15 5
-18 -1 -18 -38z m739 -802 c173 -84 277 -421 187 -608 -15 -32 -36 -60 -46
-63 -11 -4 -20 -11 -20 -16 0 -5 -24 -9 -53 -9 -61 0 -103 24 -169 98 -109
121 -164 359 -115 498 17 49 72 113 107 126 21 8 57 -1 109 -26z m7 -1499
c146 -41 319 -226 418 -447 130 -288 142 -595 30 -762 -19 -27 -34 -53 -34
-57 0 -6 -55 -37 -78 -43 -59 -16 -107 -15 -159 3 -233 80 -451 409 -509 769
-19 117 -17 200 6 297 23 96 63 166 121 213 64 51 104 56 205 27z m74 -1658
c337 -134 621 -751 501 -1093 -23 -64 -79 -134 -124 -153 -170 -74 -438 140
-592 472 -216 465 -96 897 215 774z m164 -1641 c250 -172 462 -318 472 -323
15 -10 18 -60 32 -478 11 -335 13 -470 5 -478 -8 -8 -138 84 -459 326 -247
185 -454 346 -461 358 -7 13 -22 189 -37 427 -29 449 -30 480 -16 480 5 0 214
-141 464 -312z"/>
<path d="M6402 7144 c-71 -29 -102 -181 -67 -327 17 -74 80 -204 118 -245 29
-31 90 -62 123 -62 74 0 115 64 122 190 13 248 -157 503 -296 444z"/>
<path d="M6406 5639 c-178 -43 -240 -338 -140 -667 101 -332 324 -582 518
-582 98 0 166 66 207 200 31 105 23 289 -20 440 -33 117 -90 249 -147 337
-121 190 -294 302 -418 272z"/>
<path d="M6418 3971 c-142 -91 -145 -405 -8 -708 122 -269 295 -444 462 -467
160 -23 247 156 208 428 -43 295 -256 641 -453 735 -77 37 -163 42 -209 12z"/>
<path d="M6326 2573 c3 -32 16 -217 29 -411 13 -195 26 -356 28 -359 5 -5 596
304 631 330 14 11 -31 45 -325 247 -189 129 -349 239 -356 243 -10 6 -12 -4
-7 -50z"/>
<path d="M6713 1957 c-177 -95 -321 -175 -320 -179 3 -10 841 -637 846 -633 5
6 -20 784 -28 835 -6 42 -11 48 -81 97 -41 29 -79 52 -85 52 -5 -1 -155 -78
-332 -172z"/>
</g>
</svg>
