<?xml version="1.0" standalone="no"?>
<!DOCTYPE svg PUBLIC "-//W3C//DTD SVG 20010904//EN"
 "http://www.w3.org/TR/2001/REC-SVG-20010904/DTD/svg10.dtd">
<svg version="1.0" xmlns="http://www.w3.org/2000/svg"
 width="1631.000000pt" height="928.000000pt" viewBox="0 0 1631.000000 928.000000"
 preserveAspectRatio="xMidYMid meet">
<metadata>
Created by potrace 1.15, written by Peter Selinger 2001-2017
</metadata>
<g transform="translate(0.000000,928.000000) scale(0.100000,-0.100000)"
fill="#000000" stroke="none">
<path d="M5950 7135 c-762 -178 -1387 -324 -1390 -324 -3 -1 799 -359 1781
-795 l1785 -794 1486 546 1487 546 -1862 573 c-1024 315 -1871 573 -1882 572
-11 -1 -643 -146 -1405 -324z"/>
<path d="M4402 6778 l-82 -20 57 -27 c32 -15 831 -382 1775 -815 l1717 -788
106 38 c57 21 101 41 97 45 -13 12 -3546 1582 -3567 1585 -11 1 -57 -7 -103
-18z"/>
<path d="M4290 6702 c0 -70 263 -2189 273 -2199 9 -8 2054 -1333 3226 -2090
l83 -54 -7 833 c-4 458 -10 1073 -14 1367 l-6 533 -1774 814 c-975 448 -1775
814 -1777 814 -2 0 -4 -8 -4 -18z m716 -878 c240 -80 474 -526 474 -906 0
-107 -14 -176 -51 -249 -125 -249 -449 -9 -601 444 -79 237 -88 464 -23 602
30 62 60 92 112 110 21 8 38 14 39 15 0 0 23 -7 50 -16z m1674 -862 c0 -5 24
-14 53 -21 29 -8 82 -35 122 -62 179 -123 337 -377 411 -659 24 -91 28 -125
28 -255 1 -134 -2 -158 -23 -220 -65 -187 -199 -256 -362 -186 -241 103 -465
453 -525 821 -49 299 44 545 218 579 58 12 78 12 78 3z"/>
<path d="M4920 5793 c-8 -3 -28 -17 -43 -32 -139 -129 -89 -583 96 -891 142
-235 302 -325 407 -228 l34 31 -39 30 c-175 136 -323 415 -366 690 -16 106 -7
299 17 349 10 21 15 41 11 44 -9 9 -99 15 -117 7z"/>
<path d="M5052 5743 c-75 -191 -5 -559 153 -816 25 -39 61 -90 80 -111 l35
-39 60 18 c34 10 64 23 67 28 9 15 3 185 -8 257 -39 235 -152 477 -288 618
-39 40 -74 72 -79 72 -5 0 -14 -12 -20 -27z"/>
<path d="M6630 4920 c-278 -35 -287 -611 -16 -1029 129 -200 269 -307 408
-312 69 -3 138 24 157 60 9 16 4 21 -37 36 -229 85 -466 469 -513 830 -18 142
6 319 53 386 22 32 13 37 -52 29z"/>
<path d="M6702 4873 c-122 -244 -8 -729 237 -1011 88 -101 249 -200 276 -170
56 62 68 357 21 533 -55 203 -158 401 -279 531 -59 64 -163 138 -209 149 -24
6 -29 2 -46 -32z"/>
<path d="M9638 5732 l-1488 -547 0 -1353 c0 -755 4 -1352 9 -1350 20 8 2737
1422 2744 1428 9 8 230 2322 225 2352 -3 13 -267 -81 -1490 -530z"/>
<path d="M8002 5131 c-57 -21 -105 -40 -107 -42 -5 -5 22 -2719 27 -2724 2 -2
47 18 101 46 l97 50 0 1355 c0 744 -3 1354 -7 1354 -5 -1 -54 -18 -111 -39z"/>
</g>
</svg>
