<?xml version="1.0" standalone="no"?>
<!DOCTYPE svg PUBLIC "-//W3C//DTD SVG 20010904//EN"
 "http://www.w3.org/TR/2001/REC-SVG-20010904/DTD/svg10.dtd">
<svg version="1.0" xmlns="http://www.w3.org/2000/svg"
 width="1200.000000pt" height="1200.000000pt" viewBox="0 0 1200.000000 1200.000000"
 preserveAspectRatio="xMidYMid meet">
<metadata>
Created by potrace 1.15, written by Peter Selinger 2001-2017
</metadata>
<g transform="translate(0.000000,1200.000000) scale(0.100000,-0.100000)"
fill="#000000" stroke="none">
<path d="M470 11736 c-103 -18 -192 -66 -270 -144 -288 -287 -136 -770 268
-851 34 -7 265 -11 642 -11 552 0 589 -1 594 -17 3 -10 48 -164 101 -343 53
-179 100 -338 105 -355 38 -123 76 -250 206 -685 81 -272 153 -517 160 -545 8
-27 23 -77 33 -110 11 -33 86 -283 167 -555 171 -577 182 -615 194 -655 9 -32
270 -909 322 -1080 16 -55 34 -113 38 -130 5 -16 67 -226 138 -465 72 -239
187 -626 256 -860 l127 -425 -65 -135 c-256 -531 -271 -976 -47 -1316 93 -141
216 -246 386 -331 256 -128 658 -187 1025 -150 85 9 218 21 295 27 77 6 212
17 300 25 88 8 194 17 235 20 41 3 156 12 255 21 99 8 241 19 315 24 74 5 187
14 250 19 63 6 187 15 275 21 88 6 248 17 355 25 107 8 272 19 365 25 94 5
274 17 400 25 977 61 2008 94 2421 76 203 -8 251 -8 304 5 86 20 153 58 209
120 59 64 90 129 102 209 31 220 -112 416 -334 458 -138 26 -1366 12 -1967
-23 -91 -5 -266 -14 -390 -20 -124 -6 -322 -17 -440 -25 -118 -8 -296 -19
-395 -25 -99 -6 -268 -17 -375 -25 -107 -8 -292 -22 -410 -30 -118 -8 -269
-19 -335 -25 -66 -5 -208 -17 -315 -25 -395 -31 -458 -36 -615 -50 -88 -8
-221 -19 -295 -25 -74 -6 -203 -18 -286 -26 -121 -12 -174 -13 -260 -4 -203
20 -343 61 -393 114 -37 39 -46 101 -27 189 18 88 43 176 54 193 6 10 115 25
522 74 47 6 137 17 200 25 63 8 153 19 200 24 171 20 348 42 460 56 63 8 153
19 200 24 47 6 141 17 210 26 108 13 285 34 625 75 83 10 256 31 455 55 63 8
156 19 205 25 50 6 142 17 205 25 63 8 153 19 200 24 92 11 218 26 545 66 116
14 266 32 335 41 69 8 163 19 210 25 47 5 137 16 200 24 63 8 153 19 200 24
47 6 141 17 210 26 69 8 220 26 335 40 116 14 264 32 330 40 134 17 217 27
415 50 298 36 340 44 418 81 129 62 229 185 266 329 9 33 34 157 57 275 22
118 51 269 64 335 13 66 35 183 50 260 15 77 37 194 50 260 13 66 35 183 50
260 15 77 37 194 50 260 34 171 78 397 125 645 22 118 45 238 51 265 14 76 54
285 83 435 14 74 44 227 66 340 44 228 75 388 114 590 15 74 40 205 56 290 40
205 45 254 31 336 -33 191 -177 351 -367 407 -29 9 -1142 13 -4323 17 l-4285
5 -109 365 c-60 201 -112 379 -117 395 -39 139 -190 636 -201 660 -29 67 -101
156 -162 199 -77 55 -140 80 -234 95 -102 16 -1584 13 -1673 -3z m5230 -3521
l0 -785 -979 0 c-923 0 -979 1 -986 18 -4 9 -13 37 -20 62 -7 25 -76 259 -154
520 -79 261 -153 511 -166 555 -35 118 -115 388 -120 403 -3 9 243 12 1210 12
l1215 0 0 -785z m2510 0 l0 -785 -1010 0 -1010 0 0 785 0 785 1010 0 1010 0 0
-785z m2616 768 c-6 -18 -13 -54 -86 -433 -23 -118 -52 -269 -65 -335 -13 -66
-36 -185 -51 -265 -15 -80 -44 -228 -64 -330 l-36 -185 -912 -3 -912 -2 0 785
0 785 1066 0 c1010 0 1065 -1 1060 -17z m-5126 -2968 l0 -925 -22 -4 c-24 -5
-64 -10 -403 -51 -115 -14 -266 -32 -335 -40 -69 -9 -161 -20 -205 -25 -44 -5
-115 -14 -158 -20 -43 -5 -82 -10 -87 -10 -5 0 -18 33 -30 73 -12 39 -33 106
-45 147 -13 41 -83 275 -155 520 -72 245 -135 456 -140 470 -4 14 -15 50 -24
80 -8 30 -25 87 -37 125 -61 202 -169 571 -169 577 0 5 407 8 905 8 l905 0 0
-925z m2510 151 l0 -774 -87 -11 c-122 -16 -302 -38 -403 -50 -47 -6 -141 -17
-210 -26 -191 -23 -561 -68 -885 -106 -49 -6 -137 -17 -195 -24 -58 -8 -135
-17 -172 -21 l-68 -6 0 896 0 896 1010 0 1010 0 0 -774z m2214 742 c-3 -18
-11 -62 -19 -98 -8 -36 -26 -128 -40 -205 -15 -77 -37 -194 -50 -260 -13 -66
-35 -178 -48 -250 -72 -369 -90 -460 -91 -462 -4 -4 -199 -30 -441 -58 -121
-14 -267 -32 -325 -40 -58 -7 -148 -18 -200 -24 -131 -16 -330 -40 -418 -51
-40 -6 -77 -10 -82 -10 -6 0 -10 276 -10 745 l0 745 865 0 865 0 -6 -32z"/>
<path d="M3915 2184 c-370 -57 -677 -314 -799 -667 -15 -42 -34 -129 -43 -193
-73 -511 260 -986 779 -1111 101 -25 325 -25 426 0 383 92 661 362 759 736 35
132 37 342 4 475 -45 186 -143 358 -278 487 -93 89 -142 124 -249 177 -106 53
-189 79 -309 97 -119 18 -171 18 -290 -1z"/>
<path d="M9568 2185 c-265 -42 -498 -182 -659 -397 -133 -179 -189 -354 -189
-593 0 -140 11 -220 45 -320 91 -273 321 -513 590 -616 312 -121 670 -76 942
118 310 220 470 601 409 973 -34 211 -121 383 -270 539 -159 164 -348 261
-581 296 -119 18 -171 18 -287 0z"/>
</g>
</svg>
