<?xml version="1.0" standalone="no"?>
<!DOCTYPE svg PUBLIC "-//W3C//DTD SVG 20010904//EN"
 "http://www.w3.org/TR/2001/REC-SVG-20010904/DTD/svg10.dtd">
<svg version="1.0" xmlns="http://www.w3.org/2000/svg"
 width="1631.000000pt" height="928.000000pt" viewBox="0 0 1631.000000 928.000000"
 preserveAspectRatio="xMidYMid meet">
<metadata>
Created by potrace 1.15, written by Peter Selinger 2001-2017
</metadata>
<g transform="translate(0.000000,928.000000) scale(0.100000,-0.100000)"
fill="#000000" stroke="none">
<path d="M7955 7720 c-16 -5 -41 -11 -55 -14 -14 -2 -45 -9 -70 -16 -45 -13
-45 -13 -15 -20 72 -16 130 -53 204 -128 176 -179 252 -465 185 -693 -21 -72
-38 -102 -81 -150 l-36 -40 49 19 c213 83 257 114 306 218 120 257 -9 667
-252 798 -44 24 -69 30 -130 33 -41 1 -88 -2 -105 -7z"/>
<path d="M7830 7614 c0 -6 53 -70 127 -153 24 -26 39 -51 35 -55 -4 -4 0 -6 8
-4 9 2 14 -4 14 -14 -1 -10 2 -16 6 -13 11 7 53 -71 81 -147 26 -75 30 -214
11 -377 -7 -57 -11 -106 -8 -108 8 -8 48 78 62 132 21 77 18 238 -6 331 -45
174 -151 326 -272 389 -49 26 -58 29 -58 19z"/>
<path d="M7335 7587 c-60 -30 -96 -63 -129 -120 -28 -48 -56 -139 -55 -176 0
-15 7 -2 14 31 31 124 92 211 180 252 50 24 59 25 120 17 145 -21 274 -127
364 -300 47 -90 68 -153 86 -252 7 -41 14 -61 14 -46 3 77 -57 256 -121 365
-45 77 -151 183 -218 217 -80 41 -185 46 -255 12z"/>
<path d="M7404 7492 c-94 -45 -144 -168 -146 -363 -1 -212 113 -416 279 -496
73 -35 160 -38 213 -7 102 59 156 226 130 399 -31 208 -142 389 -280 460 -52
27 -146 30 -196 7z"/>
<path d="M7926 6880 c-8 -104 -37 -192 -85 -268 -45 -69 -70 -88 -139 -106
-158 -42 -333 69 -453 287 -16 28 -29 48 -29 43 0 -5 14 -34 31 -65 93 -165
217 -271 342 -291 41 -6 64 -4 112 12 107 35 167 101 205 225 18 58 39 243 28
243 -3 0 -8 -36 -12 -80z"/>
<path d="M7400 4508 c3 -3 68 -45 145 -93 121 -76 160 -108 288 -234 307 -302
543 -690 693 -1136 65 -196 77 -242 104 -420 29 -185 31 -212 25 -355 -9 -195
-13 -220 -64 -358 -22 -62 -37 -111 -32 -108 5 3 31 68 59 143 50 137 51 139
61 312 10 170 10 178 -20 380 -27 182 -39 230 -101 421 -60 185 -84 244 -175
420 -150 291 -314 520 -506 705 -113 109 -163 150 -280 223 -78 50 -156 94
-172 98 -17 4 -28 5 -25 2z"/>
<path d="M6994 4481 c-77 -12 -109 -22 -133 -41 -30 -23 -31 -27 -20 -56 l12
-31 41 28 c33 23 61 32 141 43 55 7 105 10 110 6 6 -4 61 -22 124 -40 72 -20
134 -45 169 -67 39 -25 53 -31 49 -18 -4 9 -7 25 -7 36 0 34 -94 84 -235 123
-71 20 -134 35 -139 35 -6 -1 -57 -9 -112 -18z"/>
<path d="M7014 4376 c-61 -9 -83 -19 -141 -60 -62 -44 -76 -60 -123 -145 -30
-53 -55 -107 -57 -121 -1 -14 -12 -70 -24 -125 -22 -102 -27 -232 -15 -395 16
-223 120 -569 250 -828 86 -172 249 -429 307 -484 21 -21 36 -38 32 -38 -5 0
11 -18 35 -40 23 -22 42 -44 42 -48 0 -12 98 -102 110 -102 6 0 15 -9 22 -20
7 -11 17 -20 23 -20 6 0 31 -19 57 -42 63 -58 65 -59 209 -132 122 -61 130
-64 240 -75 114 -13 114 -13 194 16 72 25 87 35 147 99 64 66 70 77 112 195
43 120 45 129 53 284 7 149 6 173 -20 340 -82 523 -353 1057 -717 1411 -179
174 -316 263 -475 311 -117 35 -148 37 -261 19z m325 -211 c118 -35 276 -138
404 -264 363 -355 644 -1018 621 -1465 -5 -101 -12 -140 -42 -232 -33 -104
-39 -115 -101 -181 -61 -64 -72 -72 -149 -97 -64 -22 -93 -26 -130 -22 -26 4
-70 8 -97 11 -76 5 -222 80 -337 172 -261 210 -503 571 -630 943 -137 400
-144 749 -19 959 40 68 60 89 122 133 68 49 81 54 159 64 47 6 92 10 100 8 8
-2 53 -15 99 -29z"/>
<path d="M7145 4156 c-68 -9 -89 -17 -141 -53 -79 -54 -145 -163 -177 -291
-83 -339 55 -878 332 -1290 77 -115 240 -310 285 -341 12 -8 53 -40 91 -71
104 -84 264 -155 379 -168 84 -9 93 -9 163 16 66 23 81 34 132 92 49 55 63 79
90 162 28 83 33 115 38 235 11 276 -63 576 -219 888 -211 419 -500 716 -785
804 -55 17 -102 30 -104 30 -2 -1 -40 -7 -84 -13z m571 -433 c178 -60 379
-305 459 -561 86 -276 48 -475 -104 -549 -58 -29 -95 -29 -168 -1 -174 65
-365 295 -449 542 -90 263 -62 479 71 556 59 35 116 39 191 13z"/>
<path d="M7529 3693 c-84 -51 -118 -216 -84 -398 20 -106 40 -164 88 -260 148
-297 379 -468 541 -400 20 8 36 19 36 24 0 5 11 22 24 38 90 107 70 373 -47
608 -127 257 -304 407 -476 404 -32 0 -67 -8 -82 -16z"/>
<path d="M6760 4365 c-7 -8 -18 -15 -24 -15 -6 0 -37 -51 -69 -113 -51 -99
-60 -127 -82 -245 -27 -142 -26 -250 1 -273 12 -10 14 1 14 58 0 39 11 124 24
189 21 102 33 134 81 220 42 76 66 108 95 128 22 14 40 31 40 37 0 5 -4 8 -9
5 -5 -3 -14 1 -21 9 -16 19 -34 19 -50 0z"/>
<path d="M7859 4238 c77 -78 116 -111 150 -124 131 -50 306 -203 434 -379 122
-169 230 -425 262 -620 21 -132 20 -289 -5 -366 -13 -42 -17 -77 -13 -105 l6
-43 47 24 c26 13 69 49 97 82 68 79 99 166 108 303 31 484 -341 1093 -734
1201 -75 21 -87 21 -168 10 -49 -7 -96 -13 -105 -14 -9 -1 -14 -5 -12 -9 17
-27 -21 2 -91 69 -50 49 -41 38 24 -29z"/>
<path d="M7540 4306 c0 -14 -11 -21 -32 -17 -20 3 -3 -11 65 -53 118 -74 323
-289 462 -486 65 -90 136 -202 158 -247 23 -46 45 -83 50 -83 4 0 6 4 3 8 -2
4 -1 14 4 22 15 24 -66 166 -206 360 -106 148 -159 211 -266 316 -73 72 -145
138 -160 147 -16 9 -39 24 -53 33 -23 15 -25 15 -25 0z"/>
<path d="M8257 3759 c21 -30 77 -126 122 -214 46 -88 86 -163 90 -168 4 -4 17
4 30 17 l22 24 -47 93 c-61 122 -169 275 -199 283 -13 3 -31 9 -41 13 -11 4
-3 -13 23 -48z"/>
<path d="M6570 3616 c0 -107 67 -405 134 -598 63 -183 113 -298 128 -298 14 0
9 19 -26 88 -85 170 -190 564 -202 757 -6 91 -9 105 -24 105 -5 0 -10 -23 -10
-54z"/>
<path d="M8263 3393 c-9 -3 1 -32 31 -91 24 -48 73 -177 109 -287 78 -234 117
-448 117 -638 0 -71 4 -107 9 -98 8 12 13 12 24 3 29 -24 27 97 -5 313 -25
174 -38 226 -94 400 -64 196 -146 390 -168 398 -6 2 -17 2 -23 0z"/>
<path d="M6860 2655 c0 -21 99 -194 183 -319 142 -213 388 -489 419 -470 18
11 6 32 -38 65 -85 63 -281 294 -392 464 -58 88 -116 184 -128 213 -13 28 -28
52 -34 52 -5 0 -10 -2 -10 -5z"/>
<path d="M8510 2198 c0 -53 -9 -90 -46 -194 -44 -122 -51 -134 -123 -215 l-76
-87 -99 -32 -99 -32 -113 16 c-103 14 -122 20 -236 77 -68 34 -142 77 -165 96
-43 34 -43 34 -43 10 0 -34 89 -101 230 -172 107 -54 124 -59 238 -76 111 -15
127 -15 162 -2 35 14 38 18 29 40 -13 34 17 44 41 14 15 -21 19 -22 58 -10 30
9 62 33 120 93 l79 81 46 135 c32 94 47 155 49 203 4 63 2 69 -24 94 l-28 27
0 -66z"/>
</g>
</svg>
