<?xml version="1.0" standalone="no"?>
<!DOCTYPE svg PUBLIC "-//W3C//DTD SVG 20010904//EN"
 "http://www.w3.org/TR/2001/REC-SVG-20010904/DTD/svg10.dtd">
<svg version="1.0" xmlns="http://www.w3.org/2000/svg"
 width="1631.000000pt" height="928.000000pt" viewBox="0 0 1631.000000 928.000000"
 preserveAspectRatio="xMidYMid meet">
<metadata>
Created by potrace 1.15, written by Peter Selinger 2001-2017
</metadata>
<g transform="translate(0.000000,928.000000) scale(0.100000,-0.100000)"
fill="#000000" stroke="none">
<path d="M6122 7770 c-1437 -291 -2617 -530 -2621 -532 -5 -2 731 -335 1634
-740 l1642 -737 2761 867 c1518 477 2758 870 2754 873 -9 7 -3523 800 -3542
798 -8 0 -1191 -239 -2628 -529z"/>
<path d="M9585 6598 c-1523 -478 -2774 -873 -2778 -877 -5 -6 163 -3999 185
-4383 l3 -48 2455 1352 c1350 743 2457 1355 2460 1359 5 7 69 503 390 3022 31
246 56 447 56 446 -1 0 -1247 -392 -2771 -871z"/>
<path d="M3283 7196 c-83 -17 -154 -33 -157 -36 -6 -7 3205 -1530 3225 -1530
8 0 97 27 199 59 l185 59 -55 25 c-30 14 -768 345 -1640 737 -872 392 -1589
713 -1595 715 -5 2 -78 -11 -162 -29z"/>
<path d="M3080 7113 c0 -27 560 -3618 567 -3640 5 -12 650 -538 1468 -1195
l1460 -1174 2 45 c5 82 -253 4431 -263 4440 -5 5 -735 353 -1621 774 -1059
502 -1613 759 -1613 750z m1326 -1482 c5 -4 43 -18 84 -31 61 -18 94 -36 177
-99 345 -264 671 -890 774 -1486 24 -143 29 -197 29 -346 0 -231 -25 -357 -94
-471 -25 -42 -46 -80 -46 -85 0 -5 -33 -26 -74 -47 l-74 -38 -84 9 c-71 9 -95
17 -170 59 -577 323 -1070 1644 -850 2274 33 93 44 112 97 169 56 58 67 65
130 82 82 21 88 22 101 10z"/>
<path d="M4329 5583 c-60 -14 -73 -21 -122 -72 -45 -47 -59 -71 -86 -147 -88
-249 -61 -663 71 -1079 135 -425 345 -795 580 -1021 122 -117 224 -172 335
-183 73 -7 78 -6 139 26 41 22 69 45 83 69 12 19 21 38 21 42 0 4 -33 24 -73
45 -339 176 -719 836 -832 1445 -57 307 -48 600 24 771 17 41 31 77 31 81 0 6
-25 15 -94 35 -6 2 -41 -4 -77 -12z"/>
<path d="M4511 5508 c-41 -97 -51 -139 -65 -253 -37 -319 44 -749 217 -1150
70 -162 97 -215 111 -215 5 0 145 51 312 113 254 94 304 115 304 131 0 11 -25
103 -56 205 -148 495 -411 936 -678 1136 -55 41 -106 75 -113 75 -8 0 -22 -19
-32 -42z"/>
<path d="M5090 3989 c-162 -61 -298 -114 -302 -117 -12 -12 80 -161 174 -282
110 -142 227 -248 330 -301 43 -21 79 -39 82 -39 9 0 27 61 46 154 29 141 28
384 -1 564 -12 72 -25 132 -28 131 -3 0 -139 -50 -301 -110z"/>
<path d="M6570 5651 c-96 -31 -181 -59 -188 -62 -11 -4 9 -401 112 -2179 69
-1196 129 -2207 133 -2247 l8 -71 163 90 162 89 0 59 c0 33 -43 1027 -95 2211
-52 1183 -95 2155 -95 2160 0 14 -13 11 -200 -50z"/>
</g>
</svg>
